<svg width="100" height="117" viewBox="0 0 100 117" fill="none" xmlns="http://www.w3.org/2000/svg">
<path d="M90.5887 115.138V96.8465C90.5887 89.4549 85.116 83.1579 77.6806 81.9968L54.0942 78.3093H38.5579L14.9715 81.9968C7.53616 83.1579 2.06348 89.4549 2.06348 96.8465V115.138" fill="#8C82FF"/>
<path d="M90.5887 115.138V96.8465C90.5887 89.4549 85.116 83.1579 77.6806 81.9968L54.0942 78.3093H38.5579L14.9715 81.9968C7.53616 83.1579 2.06348 89.4549 2.06348 96.8465V115.138" stroke="#521980" stroke-width="2.5" stroke-linecap="round" stroke-linejoin="round"/>
<path d="M38.5581 72.3162V78.3093C38.5581 82.5212 42.0384 85.9381 46.3284 85.9381C50.6184 85.9381 54.0987 82.5212 54.0987 78.3093V72.4743" fill="white"/>
<path d="M38.5581 72.3162V78.3093C38.5581 82.5212 42.0384 85.9381 46.3284 85.9381C50.6183 85.9381 54.0987 82.5212 54.0987 78.3093V72.4743" stroke="#521980" stroke-width="2.5" stroke-linecap="round" stroke-linejoin="round"/>
<path d="M71.1226 40.4367C73.9416 36.3372 75.0777 32.0504 75.0184 28.1091L77.299 20.7842C77.973 20.0558 78.6216 19.2775 79.232 18.4576C72.0934 18.4576 68.3842 12.1107 62.2035 7.45772L53.7465 3.32911C50.9784 2.65072 47.7567 2.43014 43.9033 2.91292C42.5341 3.08356 41.1818 3.42483 39.8847 3.90761L32.8266 8.48571C31.5591 9.78423 30.5078 11.2492 29.749 12.8224C26.3026 12.7891 23.0639 14.8035 20.8002 18.0123L17.6336 28.0508C17.5616 31.9963 18.6849 36.2873 21.4912 40.3909" fill="white"/>
<path d="M71.1226 34.2637V48.3393C71.1226 51.0154 69.605 53.3502 67.3668 54.5447C66.3452 55.094 65.1752 55.4062 63.9289 55.4062H55.5355C52.6868 55.4062 50.1391 53.6831 49.1302 51.0695L48.7953 50.208C48.6003 49.7044 48.2527 49.284 47.8203 48.9885C47.3837 48.6972 46.8707 48.5307 46.3239 48.5307C45.226 48.5307 44.2425 49.2008 43.8525 50.208L43.5134 51.0695C42.5045 53.6831 39.9568 55.4062 37.1166 55.4062H28.7189C27.4726 55.4062 26.3026 55.094 25.281 54.5447C23.0427 53.3502 21.5251 51.0154 21.5251 48.3393V34.2637C21.5251 30.3598 24.7426 27.2009 28.7189 27.2009H63.9247C67.9009 27.2009 71.1184 30.3598 71.1184 34.2637H71.1226Z" fill="#34C8FF" stroke="#521980" stroke-width="2.5" stroke-linecap="round" stroke-linejoin="round"/>
<path d="M57.9135 24.0047V27.2052H34.7383V24.0047C34.7383 22.702 35.8108 21.6532 37.1376 21.6532H55.5184C56.8452 21.6532 57.9135 22.702 57.9135 24.0047Z" fill="#8C82FF" stroke="#521980" stroke-width="2.5" stroke-linecap="round" stroke-linejoin="round"/>
<path d="M67.3667 54.5447C66.591 65.2575 57.4218 73.7811 46.3281 73.7811C43.5896 73.7811 40.9614 73.2608 38.5578 72.3161C36.0864 71.3505 33.8439 69.9355 31.9321 68.1791C28.1593 64.7123 25.6709 59.9011 25.2852 54.5447C26.3068 55.0941 27.4768 55.4062 28.7231 55.4062H37.1207C39.9609 55.4062 42.5086 53.6832 43.5175 51.0695L43.8567 50.208C44.2467 49.2008 45.2301 48.5308 46.3281 48.5308C46.8791 48.5308 47.3921 48.6931 47.8245 48.9886C48.2526 49.2799 48.6002 49.7044 48.7995 50.208L49.1343 51.0695C50.1433 53.6832 52.691 55.4062 55.5396 55.4062H63.9331C65.1794 55.4062 66.3493 55.0941 67.371 54.5447H67.3667Z" fill="white" stroke="#521980" stroke-width="2.5" stroke-linecap="round" stroke-linejoin="round"/>
<path d="M17.638 28.0458C17.5659 31.9913 18.6893 36.2822 21.4956 40.3858" stroke="#521980" stroke-width="2.5" stroke-linecap="round" stroke-linejoin="round"/>
<path d="M32.8266 8.48071C31.5591 9.77923 30.5078 11.2442 29.749 12.8174C26.3026 12.7841 23.064 14.7985 20.8003 18.0073" stroke="#521980" stroke-width="2.5" stroke-linecap="round" stroke-linejoin="round"/>
<path d="M53.7422 3.3241C50.9741 2.64571 47.7524 2.42513 43.899 2.90791C42.5298 3.07855 41.1775 3.41983 39.8804 3.90261" stroke="#521980" stroke-width="2.5" stroke-linecap="round" stroke-linejoin="round"/>
<path d="M77.2991 20.7792C77.9731 20.0509 78.6217 19.2726 79.2321 18.4527C72.0934 18.4527 68.3842 12.1058 62.2036 7.45276" stroke="#521980" stroke-width="2.5" stroke-linecap="round" stroke-linejoin="round"/>
<path d="M75.0183 28.1041C75.0776 32.0455 73.9416 36.3364 71.1226 40.4317" stroke="#521980" stroke-width="2.5" stroke-linecap="round" stroke-linejoin="round"/>
<path d="M15.247 38.2926C11.737 38.176 9.40976 37.3395 8.71455 35.7163C6.50597 30.5597 21.5802 19.41 42.3857 10.8156C63.1913 2.21713 81.8518 -0.56719 84.0604 4.58942C85.0608 6.92841 82.5131 10.4993 77.4855 14.5031" stroke="#521980" stroke-width="2.5" stroke-linecap="round" stroke-linejoin="round"/>
<path d="M15.9423 15.3937C10.4017 11.2235 7.51916 7.46115 8.54078 5.00146C10.6942 -0.180114 29.3845 2.40027 50.2875 10.7699C71.1905 19.1395 86.3919 30.1227 84.2384 35.3043C83.5305 37.0107 81.0252 37.8764 77.2354 37.9679" stroke="#521980" stroke-width="2.5" stroke-linecap="round" stroke-linejoin="round"/>
<path d="M87.4053 24.4292C89.1402 24.4292 90.5465 23.0484 90.5465 21.3452C90.5465 19.642 89.1402 18.2612 87.4053 18.2612C85.6705 18.2612 84.2642 19.642 84.2642 21.3452C84.2642 23.0484 85.6705 24.4292 87.4053 24.4292Z" fill="white" stroke="#521980" stroke-width="2.5" stroke-linecap="round" stroke-linejoin="round"/>
<path d="M15.9126 51.3182C16.3111 49.6605 15.2654 47.9995 13.577 47.6082C11.8885 47.217 10.1967 48.2436 9.79822 49.9013C9.39971 51.559 10.4454 53.22 12.1338 53.6113C13.8223 54.0025 15.5141 52.9759 15.9126 51.3182Z" fill="white" stroke="#521980" stroke-width="2.5" stroke-linecap="round" stroke-linejoin="round"/>
<path d="M6.20943 24.9994C8.53423 24.9994 10.4189 23.1491 10.4189 20.8667C10.4189 18.5842 8.53423 16.7339 6.20943 16.7339C3.88463 16.7339 2 18.5842 2 20.8667C2 23.1491 3.88463 24.9994 6.20943 24.9994Z" fill="white" stroke="#521980" stroke-width="2.5" stroke-linecap="round" stroke-linejoin="round"/>
<path d="M78.9272 72.6866L76.973 77.0857C76.4431 78.2761 75.3028 79.0876 73.9887 79.2166L69.1222 79.6828C65.9556 79.9866 64.6796 83.8488 67.0577 85.9215L70.7161 89.1095C71.7038 89.971 72.1404 91.2903 71.8564 92.5556L70.8051 97.246C70.1226 100.297 73.4673 102.681 76.21 101.1L80.4279 98.6694C81.5682 98.0118 82.9798 98.0118 84.1201 98.6694L88.338 101.1C91.0807 102.681 94.4254 100.297 93.7429 97.246L92.6916 92.5556C92.4076 91.2903 92.8442 89.971 93.8319 89.1095L97.4902 85.9215C99.8684 83.8488 98.5924 79.9866 95.4258 79.6828L90.5593 79.2166C89.2452 79.0918 88.1006 78.2761 87.575 77.0857L85.6208 72.6866C84.349 69.8232 80.2117 69.8232 78.9399 72.6866H78.9272Z" fill="#34C8FF" stroke="#521980" stroke-width="2.5" stroke-linecap="round" stroke-linejoin="round"/>
</svg>
