<svg width="156" height="111" viewBox="0 0 156 111" fill="none" xmlns="http://www.w3.org/2000/svg">
<path d="M66.5004 38.0055C69.1059 39.6684 70.8501 42.4233 70.9529 45.5835C71.0644 49.0127 69.213 52.0819 66.3418 53.8565" stroke="white" stroke-width="2.5" stroke-linecap="round" stroke-linejoin="round"/>
<path d="M72.2344 31.5402C77.1669 34.2826 80.6595 39.1016 81.2124 44.8389C81.8123 51.0643 78.804 56.843 73.7857 60.3838" stroke="white" stroke-width="2.5" stroke-linecap="round" stroke-linejoin="round"/>
<path d="M66.0759 77.4344C62.8661 69.0415 54.2009 62.9857 44.083 62.9857H25.3214C12.495 62.9857 2 72.7188 2 84.6112V90.9773C2 96.1189 6.354 100.288 11.7237 100.288H56.2451" fill="#34C8FF"/>
<path d="M66.0759 77.4344C62.8661 69.0415 54.2009 62.9857 44.083 62.9857H25.3214C12.495 62.9857 2 72.7188 2 84.6112V90.9773C2 96.1189 6.354 100.288 11.7237 100.288H56.2451" stroke="white" stroke-width="2.5" stroke-linecap="round" stroke-linejoin="round"/>
<path d="M64.623 95.8625V106.332C64.623 107.982 62.7374 109.331 60.4319 109.331C58.1263 109.331 56.2407 107.982 56.2407 106.332V94.9648" fill="#521980"/>
<path d="M64.623 95.8625V106.332C64.623 107.982 62.7374 109.331 60.4319 109.331C58.1263 109.331 56.2407 107.982 56.2407 106.332V94.9648" stroke="white" stroke-width="2.5" stroke-linecap="round" stroke-linejoin="round"/>
<path d="M60.4962 78.7747H52.3024C51.4496 78.7747 50.7554 79.5068 50.7554 80.4003V93.2896C50.7554 94.183 51.4539 94.9152 52.3024 94.9152H60.4962" fill="#521980"/>
<path d="M60.4962 78.7747H52.3024C51.4496 78.7747 50.7554 79.5068 50.7554 80.4003V93.2896C50.7554 94.183 51.4539 94.9152 52.3024 94.9152H60.4962" stroke="white" stroke-width="2.5" stroke-linecap="round" stroke-linejoin="round"/>
<path d="M60.4362 78.7333C60.4919 78.7333 60.5476 78.725 60.599 78.7126L79.6864 74.2659C79.7549 74.2494 79.8278 74.2411 79.9006 74.2411C83.0804 74.2949 85.6645 76.7064 85.6645 79.6433V94.1417C85.6645 97.0786 83.0804 99.4901 79.9006 99.5439C79.8278 99.5439 79.7549 99.5357 79.6821 99.5191C79.6821 99.5191 60.4876 94.8987 60.4319 94.8987V78.7292L60.4362 78.7333Z" fill="#521980" stroke="white" stroke-width="2.5" stroke-linecap="round" stroke-linejoin="round"/>
<path d="M77.0166 75.5896V97.6577" stroke="white" stroke-width="2.5" stroke-linecap="round" stroke-linejoin="round"/>
<path d="M42.0902 56.6652V62.9857C42.0902 66.9236 38.7818 70.117 34.7021 70.117C30.6223 70.117 27.314 66.9236 27.314 62.9857V56.6652" fill="white"/>
<path d="M42.0902 56.6652V62.9857C42.0902 66.9236 38.7818 70.117 34.7021 70.117C30.6223 70.117 27.314 66.9236 27.314 62.9857V56.6652" stroke="white" stroke-width="2.5" stroke-linecap="round" stroke-linejoin="round"/>
<path d="M54.5739 31.7718C57.7494 27.23 58.2594 22.3903 57.188 18.4317C58.6065 17.3024 59.9178 15.9829 61.0706 14.4524C51.3941 14.4524 49.5728 0.136066 32.7567 2.2043C27.9313 2.79582 23.3973 5.95609 21.4175 10.014C13.9822 9.94365 7.73405 21.5754 14.8007 31.7346" fill="#521980"/>
<path d="M54.5739 31.7718C57.7494 27.23 58.2594 22.3903 57.188 18.4317C58.6065 17.3024 59.9178 15.9829 61.0706 14.4524C51.3941 14.4524 49.5728 0.136066 32.7567 2.2043C27.9313 2.79582 23.3973 5.95609 21.4175 10.014C13.9822 9.94365 7.73405 21.5754 14.8007 31.7346" stroke="white" stroke-width="2.5" stroke-linecap="round" stroke-linejoin="round"/>
<path d="M54.5781 26.9115V38.0014C54.5781 40.111 53.3568 41.9476 51.5698 42.8866C50.7512 43.3209 49.8084 43.565 48.8142 43.565H42.0818C39.8062 43.565 37.7664 42.2041 36.9521 40.1482L36.6779 39.4698C36.5236 39.0686 36.245 38.7418 35.8979 38.5102C35.5551 38.2785 35.1351 38.1503 34.698 38.1503C33.8195 38.1503 33.0267 38.6756 32.7138 39.4698L32.4481 40.1482C31.6339 42.2041 29.5983 43.565 27.3142 43.565H20.5903C19.5918 43.565 18.6533 43.3168 17.8348 42.8866C16.0392 41.9476 14.8264 40.111 14.8264 38.0014V26.9115C14.8264 23.834 17.4063 21.3397 20.5903 21.3397H48.8099C51.9897 21.3397 54.5739 23.834 54.5739 26.9115H54.5781Z" fill="#34C8FF" stroke="white" stroke-width="2.5" stroke-linecap="round" stroke-linejoin="round"/>
<path d="M43.9889 18.0057V21.3397H25.4158V18.0057C25.4158 16.9798 26.2729 16.1525 27.3356 16.1525H42.069C43.1318 16.1525 43.9889 16.9798 43.9889 18.0057Z" fill="#8C82FF" stroke="white" stroke-width="2.5" stroke-linecap="round" stroke-linejoin="round"/>
<path d="M51.5654 42.8866C51.094 49.2485 46.8128 54.6259 40.9247 56.8927C39.0005 57.6331 36.8963 58.0426 34.6979 58.0426C32.4995 58.0426 30.3996 57.6331 28.4712 56.8927C26.487 56.1316 24.6957 55.0189 23.1615 53.629C20.136 50.8948 18.139 47.1058 17.8347 42.8824C18.6532 43.3168 19.5917 43.5608 20.5903 43.5608H27.3141C29.5982 43.5608 31.6381 42.1999 32.4481 40.1441L32.7138 39.4657C33.0266 38.6715 33.8151 38.1462 34.6979 38.1462C35.135 38.1462 35.555 38.2785 35.8978 38.5061C36.245 38.7377 36.5235 39.0645 36.6778 39.4657L36.9521 40.1441C37.7663 42.1999 39.8019 43.5608 42.0817 43.5608H48.8141C49.8084 43.5608 50.7512 43.3126 51.5697 42.8824L51.5654 42.8866Z" fill="#8C82FF" stroke="white" stroke-width="2.5" stroke-linecap="round" stroke-linejoin="round"/>
<path d="M100.514 41.3685C94.7496 41.3685 90.0356 45.778 90.0356 51.1636V52.4956C90.0356 55.6807 92.7098 58.266 96.0138 58.266H113.447C116.747 58.266 119.425 55.6848 119.425 52.4956V51.1636C119.425 45.778 114.711 41.3685 108.947 41.3685H100.518H100.514Z" fill="#521980" stroke="white" stroke-width="2.5" stroke-linecap="round" stroke-linejoin="round"/>
<path d="M135.774 55.0396C130.01 55.0396 125.296 59.449 125.296 64.8347V66.1667C125.296 69.3518 127.97 71.9371 131.274 71.9371H148.707C152.007 71.9371 154.686 69.3559 154.686 66.1667V64.8347C154.686 59.449 149.972 55.0396 144.208 55.0396H135.778H135.774Z" fill="#521980" stroke="white" stroke-width="2.5" stroke-linecap="round" stroke-linejoin="round"/>
<path d="M104.636 77.2276C98.8722 77.2276 94.1582 81.6371 94.1582 87.0228V88.3547C94.1582 91.5398 96.8323 94.1251 100.136 94.1251H117.57C120.869 94.1251 123.548 91.5439 123.548 88.3547V87.0228C123.548 81.6371 118.834 77.2276 113.07 77.2276H104.64H104.636Z" fill="#34C8FF" stroke="white" stroke-width="2.5" stroke-linecap="round" stroke-linejoin="round"/>
<path d="M114.238 28.5062C115.09 23.4393 111.525 18.6649 106.276 17.8424C101.026 17.0199 96.08 20.4608 95.2279 25.5277C94.3758 30.5947 97.9406 35.3691 103.19 36.1916C108.439 37.0141 113.386 33.5732 114.238 28.5062Z" fill="#8C82FF" stroke="white" stroke-width="2.5" stroke-linecap="round" stroke-linejoin="round"/>
<path d="M149.355 42.9985C150.577 38.0024 147.371 32.9964 142.195 31.8173C137.019 30.6381 131.833 33.7323 130.611 38.7283C129.39 43.7243 132.595 48.7303 137.771 49.9095C142.947 51.0887 148.134 47.9945 149.355 42.9985Z" fill="#8C82FF" stroke="white" stroke-width="2.5" stroke-linecap="round" stroke-linejoin="round"/>
<path d="M115.182 69.3242C118.942 65.6944 118.942 59.8094 115.182 56.1796C111.421 52.5498 105.324 52.5498 101.564 56.1796C97.8031 59.8094 97.8031 65.6944 101.564 69.3242C105.324 72.954 111.421 72.954 115.182 69.3242Z" fill="#8C82FF" stroke="white" stroke-width="2.5" stroke-linecap="round" stroke-linejoin="round"/>
</svg>
