<svg width="117" height="94" viewBox="0 0 117 94" fill="none" xmlns="http://www.w3.org/2000/svg">
<path d="M58.8485 8.28394C27.4528 8.28394 2 12.8556 2 18.4953V60.6871C2 66.4972 27.4528 71.206 58.8485 71.206C90.2441 71.206 115.697 66.4972 115.697 60.6871V18.4953C115.697 12.8556 90.2441 8.28394 58.8485 8.28394Z" fill="#8C82FF"/>
<path d="M80.1338 9.02368C84.9272 9.37279 89.4014 9.8341 93.4413 10.391" stroke="white" stroke-width="2.5" stroke-linecap="round" stroke-linejoin="round"/>
<path d="M24.077 68.9783C10.646 67.1123 2 64.1864 2 60.9032V18.4952" stroke="white" stroke-width="2.5" stroke-linecap="round" stroke-linejoin="round"/>
<path d="M115.701 18.5534V60.899C115.701 64.307 106.408 67.3201 92.1257 69.1778" stroke="white" stroke-width="2.5" stroke-linecap="round" stroke-linejoin="round"/>
<path d="M24.0769 26.9568V68.9783" stroke="white" stroke-width="2.5" stroke-linecap="round" stroke-linejoin="round"/>
<path d="M92.1257 27.1314V69.1778" stroke="white" stroke-width="2.5" stroke-linecap="round" stroke-linejoin="round"/>
<path d="M43.8892 2H49.8746V14.5678H43.8892" stroke="white" stroke-width="2.5" stroke-linecap="round" stroke-linejoin="round"/>
<path d="M49.8746 8.28387H43.8892" stroke="white" stroke-width="2.5" stroke-linecap="round" stroke-linejoin="round"/>
<path d="M61.8411 2H55.8557V14.5678H61.8411V8.28389H55.9068" stroke="white" stroke-width="2.5" stroke-linecap="round" stroke-linejoin="round"/>
<path d="M73.8121 2H67.8267V14.5678H73.8121V2Z" stroke="white" stroke-width="2.5" stroke-linecap="round" stroke-linejoin="round"/>
<path d="M34.362 27.7091C15.2224 26.0674 2 22.5556 2 18.4952C2 14.1937 16.806 10.5156 37.7591 9.01117" stroke="white" stroke-width="2.5" stroke-linecap="round" stroke-linejoin="round"/>
<path d="M105.165 12.5729C111.797 14.2436 115.701 16.2884 115.701 18.4952C115.701 24.1349 90.2484 28.7065 58.8527 28.7065C52.9184 28.7065 47.1969 28.5444 41.8203 28.241" stroke="white" stroke-width="2.5" stroke-linecap="round" stroke-linejoin="round"/>
<path d="M90.1292 6.16016L94.6587 10.5863L88.9202 14.04" stroke="white" stroke-width="2.5" stroke-linecap="round" stroke-linejoin="round"/>
<path d="M45.0768 32.6423L40.5474 28.2203L46.2858 24.7625" stroke="white" stroke-width="2.5" stroke-linecap="round" stroke-linejoin="round"/>
<path d="M97.9577 58.7172V80.7898C97.9577 84.9915 95.5567 88.6446 92.0319 90.5107C90.4228 91.371 88.5667 91.8656 86.6127 91.8656H73.3691C68.8864 91.8656 64.8763 89.16 63.2756 85.0663L62.7392 83.7115C62.437 82.9135 61.8878 82.261 61.2067 81.8039C60.5341 81.3467 59.7082 81.0849 58.8483 81.0849C57.1157 81.0849 55.5619 82.1322 54.9489 83.7156L54.4252 85.0705C52.8289 89.1642 48.8145 91.8697 44.3233 91.8697H31.0882C29.1214 91.8697 27.2781 91.3793 25.669 90.5149C22.1356 88.6488 19.7432 84.9957 19.7432 80.7939V58.7214C19.7432 52.5995 24.8176 47.6331 31.0882 47.6331H86.6127C92.8706 47.6331 97.9577 52.5995 97.9577 58.7214V58.7172Z" fill="#34C8FF" stroke="white" stroke-width="2.5" stroke-linecap="round" stroke-linejoin="round"/>
<path d="M77.1238 40.996V47.6289H40.5771V40.996C40.5771 38.9553 42.2629 37.3096 44.3531 37.3096H73.3478C75.438 37.3096 77.1238 38.9553 77.1238 40.996Z" fill="#521980" stroke="white" stroke-width="2.5" stroke-linecap="round" stroke-linejoin="round"/>
</svg>
