<svg width="135" height="107" viewBox="0 0 135 107" fill="none" xmlns="http://www.w3.org/2000/svg">
<path d="M34.7377 72.678L2 58.2414V16.4408L34.7377 30.8816V72.678Z" fill="#34C8FF" stroke="white" stroke-width="2.5" stroke-linecap="round" stroke-linejoin="round"/>
<path d="M34.7377 72.678L67.4796 58.2414V16.4408L34.7377 30.8816V72.678Z" fill="#521980" stroke="white" stroke-width="2.5" stroke-linecap="round" stroke-linejoin="round"/>
<path d="M67.4797 16.4408L34.7377 2L2 16.4408L34.7377 30.8817L67.4797 16.4408Z" fill="#8C82FF" stroke="white" stroke-width="2.5" stroke-linecap="round" stroke-linejoin="round"/>
<path d="M59.4834 6.37427H90.4715V35.6895" stroke="white" stroke-width="2.5" stroke-linecap="round" stroke-linejoin="round"/>
<path d="M41.4135 82.7615H15.1138V69.0178" stroke="white" stroke-width="2.5" stroke-linecap="round" stroke-linejoin="round"/>
<path d="M101.78 105.704V91.2933H79.6636V105.704" fill="#521980"/>
<path d="M101.78 105.704V91.2933H79.6636V105.704" stroke="white" stroke-width="2.5" stroke-linecap="round" stroke-linejoin="round"/>
<path d="M70.3972 105.704H110.55" stroke="white" stroke-width="2.5" stroke-linecap="round" stroke-linejoin="round"/>
<path d="M51.1216 35.6896C48.977 35.6896 47.2358 37.4325 47.2358 39.5793V87.4079C47.2358 89.5547 48.9727 91.2976 51.1216 91.2976H129.821C131.966 91.2976 133.707 89.5589 133.707 87.4079V39.5793C133.707 37.4325 131.966 35.6896 126.832 35.6896H51.1216Z" fill="#8C82FF" stroke="white" stroke-width="2.5" stroke-linecap="round" stroke-linejoin="round"/>
<path d="M90.361 82.3449L71.701 74.1148V50.2919L90.361 58.522V82.3449Z" stroke="white" stroke-width="2.5" stroke-linecap="round" stroke-linejoin="round"/>
<path d="M90.361 82.3449L109.021 74.1148V50.2919L90.361 58.522" stroke="white" stroke-width="2.5" stroke-linecap="round" stroke-linejoin="round"/>
<path d="M109.021 50.2919L90.361 42.0619L71.701 50.2919" stroke="white" stroke-width="2.5" stroke-linecap="round" stroke-linejoin="round"/>
<path d="M109.021 74.1148L106.855 73.1583" stroke="white" stroke-width="2.5" stroke-linecap="round" stroke-linejoin="round"/>
<path d="M102.078 71.0498L94.9135 67.8912" stroke="white" stroke-width="2.5" stroke-linecap="round" stroke-linejoin="round"/>
<path d="M92.5268 66.837L90.361 65.8848L88.1952 66.837" stroke="white" stroke-width="2.5" stroke-linecap="round" stroke-linejoin="round"/>
<path d="M83.4177 68.9455L76.2535 72.104" stroke="white" stroke-width="2.5" stroke-linecap="round" stroke-linejoin="round"/>
<path d="M73.8669 73.1583L71.701 74.1148" stroke="white" stroke-width="2.5" stroke-linecap="round" stroke-linejoin="round"/>
<path d="M90.361 42.0619V58.522" stroke="white" stroke-width="2.5" stroke-linecap="round" stroke-linejoin="round"/>
<path d="M115.123 82.2386C115.574 81.9665 115.99 81.6562 116.368 81.3161L118.928 82.2471C119.442 81.6647 119.909 81.0186 120.3 80.3129C120.691 79.603 120.992 78.8675 121.213 78.1193L119.064 76.4402C119.234 75.4284 119.217 74.3827 119.009 73.3539L121.098 71.5982C120.852 70.8585 120.529 70.1359 120.109 69.4387C119.689 68.7415 119.204 68.1166 118.669 67.5512L116.143 68.5757C115.336 67.9083 114.423 67.4024 113.446 67.0794L112.97 64.3927C112.206 64.2397 111.42 64.1546 110.609 64.1716C109.798 64.1844 109.012 64.2949 108.256 64.4777L107.879 67.1771C107.403 67.3557 106.931 67.5725 106.481 67.8445C106.031 68.1166 105.615 68.4269 105.237 68.767L102.676 67.8361C102.162 68.4184 101.695 69.0646 101.305 69.7703C100.914 70.4802 100.612 71.2156 100.392 71.9638L102.54 73.643C102.371 74.6547 102.388 75.7005 102.596 76.7293L100.506 78.4849C100.753 79.2246 101.075 79.9473 101.496 80.6445C101.912 81.3416 102.4 81.9665 102.935 82.5319L105.462 81.5074C106.269 82.1748 107.182 82.6807 108.159 83.0038L108.634 85.6905C109.399 85.8435 110.184 85.9285 110.996 85.9115C111.807 85.8988 112.592 85.7882 113.348 85.6054L113.726 82.906C114.202 82.7275 114.673 82.5107 115.123 82.2386Z" fill="#34C8FF" stroke="white" stroke-width="2.5" stroke-linecap="round" stroke-linejoin="round"/>
<path d="M112.068 78.4985C113.98 77.7985 114.963 75.6796 114.264 73.7657C113.564 71.8518 111.448 70.8677 109.536 71.5677C107.624 72.2677 106.641 74.3867 107.34 76.3006C108.039 78.2145 110.156 79.1985 112.068 78.4985Z" fill="#8C82FF" stroke="white" stroke-width="2.5" stroke-linecap="round" stroke-linejoin="round"/>
</svg>
