<svg width="113" height="123" viewBox="0 0 113 123" fill="none" xmlns="http://www.w3.org/2000/svg">
<path d="M103.115 17.448H16.2389C11.9672 17.448 8.50439 20.946 8.50439 25.2611V89.8226C8.50439 94.1376 11.9672 97.6357 16.2389 97.6357H103.115C107.387 97.6357 110.85 94.1376 110.85 89.8226V25.2611C110.85 20.946 107.387 17.448 103.115 17.448Z" fill="white" stroke="#521980" stroke-width="2.5" stroke-linecap="round" stroke-linejoin="round"/>
<path d="M21.0176 83.1539L30.9583 65.0022L55.6524 66.0993L64.967 33.4486" stroke="#521980" stroke-width="2.5" stroke-linecap="round" stroke-linejoin="round"/>
<path d="M26.6098 83.5282C26.8568 80.3832 24.5484 77.6641 21.4606 77.4576C18.3685 77.251 15.6682 79.6303 15.4212 82.7753C15.1742 85.9203 17.4826 88.6394 20.5704 88.8459C23.6625 89.0525 26.3628 86.6732 26.6098 83.5282Z" fill="#34C8FF" stroke="#521980" stroke-width="2.5" stroke-linecap="round" stroke-linejoin="round"/>
<path d="M36.5546 65.3809C36.8016 62.2358 34.4932 59.5167 31.4054 59.3102C28.3133 59.1037 25.613 61.4829 25.366 64.628C25.119 67.773 27.4274 70.4921 30.5152 70.6986C33.6073 70.9051 36.3076 68.5259 36.5546 65.3809Z" fill="#8C82FF" stroke="#521980" stroke-width="2.5" stroke-linecap="round" stroke-linejoin="round"/>
<path d="M60.3843 69.1094C62.0515 66.4297 61.285 62.9126 58.6721 61.2536C56.0592 59.5947 52.5895 60.4222 50.9222 63.1019C49.2549 65.7815 50.0215 69.2987 52.6344 70.9576C55.2472 72.6166 58.717 71.7891 60.3843 69.1094Z" fill="#34C8FF" stroke="#521980" stroke-width="2.5" stroke-linecap="round" stroke-linejoin="round"/>
<path d="M70.5592 33.8229C70.8063 30.6779 68.4978 27.9587 65.41 27.7522C62.3179 27.5457 59.6177 29.9249 59.3707 33.07C59.1236 36.215 61.432 38.9341 64.5199 39.1406C67.612 39.3471 70.3122 36.9679 70.5592 33.8229Z" fill="#34C8FF" stroke="#521980" stroke-width="2.5" stroke-linecap="round" stroke-linejoin="round"/>
<path d="M68.7873 111.614C60.9975 101.194 56.1166 84.1392 56.1166 84.1392C54.9624 81.5835 56.0356 78.5461 58.5144 77.3543C60.9932 76.1625 63.932 77.264 65.0819 79.8196L71.2874 93.5743L71.3129 57.6494C71.3129 54.8314 73.5319 52.5425 76.262 52.5382C78.9921 52.5382 81.2068 54.8185 81.2025 57.6408L81.1855 81.8202V79.2689C81.1855 76.4508 83.4045 74.1619 86.1345 74.1576C88.8646 74.1576 91.0793 76.4379 91.0751 79.2603V80.2799C91.0751 77.4619 93.2898 75.173 96.0241 75.1687C98.7542 75.1687 100.969 77.449 100.965 80.2713V81.291C100.965 78.4729 103.179 76.1841 105.914 76.1798C108.648 76.1755 110.858 78.46 110.854 81.2824L110.841 96.4913C110.833 109.923 100.275 120.826 87.2632 120.834C82.5271 120.834 78.1189 119.397 74.4263 116.919C72.2798 115.473 70.3717 113.679 68.7873 111.61" fill="white"/>
<path d="M68.7873 111.614C60.9975 101.194 56.1166 84.1392 56.1166 84.1392C54.9624 81.5835 56.0356 78.5461 58.5144 77.3543C60.9932 76.1625 63.932 77.264 65.0819 79.8196L71.2874 93.5743L71.3129 57.6494C71.3129 54.8314 73.5319 52.5425 76.262 52.5382C78.9921 52.5382 81.2068 54.8185 81.2025 57.6408L81.1855 81.8202V79.2689C81.1855 76.4508 83.4045 74.1619 86.1345 74.1576C88.8646 74.1576 91.0793 76.4379 91.0751 79.2603V80.2799C91.0751 77.4619 93.2898 75.173 96.0241 75.1687C98.7542 75.1687 100.969 77.449 100.965 80.2713V81.291C100.965 78.4729 103.179 76.1841 105.914 76.1798C108.648 76.1755 110.858 78.46 110.854 81.2824L110.841 96.4913C110.833 109.923 100.275 120.826 87.2632 120.834C82.5271 120.834 78.1189 119.397 74.4263 116.919C72.2798 115.473 70.3717 113.679 68.7873 111.61" stroke="#521980" stroke-width="2.5" stroke-linecap="round" stroke-linejoin="round"/>
<path d="M102.89 28.5007H87.6934V40.4183H102.89V28.5007Z" fill="#8C82FF" stroke="#521980" stroke-width="2.5" stroke-linecap="round" stroke-linejoin="round"/>
<path d="M102.89 49.0188H87.6934V60.9364H102.89V49.0188Z" fill="#34C8FF" stroke="#521980" stroke-width="2.5" stroke-linecap="round" stroke-linejoin="round"/>
<path d="M49.711 29.4989V22.8733C49.711 21.9224 48.9486 21.1523 48.0074 21.1523H44.4936C44.0933 21.1523 43.7483 20.8856 43.629 20.4983C43.3096 19.4787 42.905 18.4977 42.4237 17.5641C42.2406 17.207 42.2959 16.7682 42.5813 16.4842L45.0686 13.9716C45.733 13.3005 45.733 12.212 45.0686 11.5408L40.4305 6.85551C39.7661 6.18434 38.6885 6.18434 38.0241 6.85551L35.5368 9.3681C35.2557 9.65206 34.8213 9.71229 34.4678 9.52729C33.5435 9.04112 32.5725 8.63239 31.5631 8.30972C31.184 8.18925 30.9157 7.84076 30.9157 7.43633V3.88257C30.9157 2.93175 30.1533 2.16162 29.2121 2.16162H22.6531C21.7118 2.16162 20.9495 2.93175 20.9495 3.88257V7.43203C20.9495 7.83645 20.6854 8.18495 20.3021 8.30541C19.2927 8.62809 18.3216 9.03682 17.3974 9.52298C17.0439 9.70799 16.6095 9.65206 16.3284 9.3638L13.8411 6.85121C13.1766 6.18004 12.0991 6.18004 11.4347 6.85121L6.79655 11.5365C6.13214 12.2077 6.13214 13.2962 6.79655 13.9673L9.28385 16.4799C9.56495 16.7639 9.62458 17.2027 9.44144 17.5598C8.96016 18.4934 8.55555 19.4744 8.23612 20.494C8.11687 20.877 7.77188 21.148 7.37153 21.148H3.85353C2.91228 21.148 2.1499 21.9181 2.1499 22.869V29.4946C2.1499 30.4454 2.91228 31.2156 3.85353 31.2156H7.36727C7.76762 31.2156 8.11261 31.4823 8.23186 31.8695C8.55129 32.8892 8.9559 33.8701 9.43718 34.8037C9.62032 35.1608 9.56495 35.5997 9.27959 35.8836L6.79229 38.3962C6.12788 39.0674 6.12788 40.1559 6.79229 40.8271L11.4304 45.5124C12.0948 46.1835 13.1724 46.1835 13.8368 45.5124L16.3241 42.9998C16.6052 42.7158 17.0396 42.6556 17.3931 42.8406C18.3174 43.3268 19.2884 43.7355 20.2978 44.0582C20.6769 44.1786 20.9452 44.5271 20.9452 44.9315V48.481C20.9452 49.4318 21.7076 50.202 22.6488 50.202H29.2078C30.1491 50.202 30.9114 49.4318 30.9114 48.481V44.9315C30.9114 44.5271 31.1755 44.1786 31.5588 44.0582C32.5682 43.7355 33.5393 43.3268 34.4635 42.8406C34.817 42.6556 35.2514 42.7115 35.5325 42.9998L38.0198 45.5124C38.6842 46.1835 39.7618 46.1835 40.4262 45.5124L45.0643 40.8271C45.7288 40.1559 45.7288 39.0674 45.0643 38.3962L42.577 35.8836C42.2959 35.5997 42.2363 35.1608 42.4195 34.8037C42.9007 33.8701 43.3053 32.8892 43.6248 31.8695C43.744 31.4866 44.089 31.2156 44.4894 31.2156H48.0031C48.9444 31.2156 49.7067 30.4454 49.7067 29.4946L49.711 29.4989Z" fill="#8C82FF" stroke="#521980" stroke-width="2.5" stroke-linecap="round" stroke-linejoin="round"/>
<path d="M34.9648 28.3363C36.1428 23.2948 33.0519 18.2433 28.0611 17.0534C23.0704 15.8635 18.0698 18.9858 16.8918 24.0273C15.7139 29.0687 18.8048 34.1202 23.7955 35.3101C28.7863 36.5 33.7869 33.3777 34.9648 28.3363Z" fill="white" stroke="#521980" stroke-width="2.5" stroke-linecap="round" stroke-linejoin="round"/>
</svg>
